<?xml version="1.0" standalone="no"?>
<!DOCTYPE svg PUBLIC "-//W3C//DTD SVG 20010904//EN"
 "http://www.w3.org/TR/2001/REC-SVG-20010904/DTD/svg10.dtd">
<svg version="1.0" xmlns="http://www.w3.org/2000/svg"
 width="691.000000pt" height="691.000000pt" viewBox="0 0 691.000000 691.000000"
 preserveAspectRatio="xMidYMid meet">
<metadata>
Created by potrace 1.14, written by Peter Selinger 2001-2017
</metadata>
<g transform="translate(0.000000,691.000000) scale(0.100000,-0.100000)"
fill="#000000" stroke="none">
<path d="M3447 6353 c-3 -4 -50 -134 -106 -288 -56 -154 -106 -289 -111 -300
-5 -11 -72 -195 -150 -410 -77 -214 -145 -399 -150 -410 -5 -11 -70 -188 -145
-394 -75 -206 -140 -382 -145 -390 -7 -14 -139 -16 -1320 -16 l-1312 0 30 -23
c17 -13 54 -38 84 -56 29 -18 217 -139 418 -269 201 -129 437 -282 525 -338
88 -57 210 -135 270 -175 256 -166 346 -224 351 -224 3 0 10 -5 17 -11 7 -5
48 -33 92 -61 44 -28 112 -72 150 -97 74 -49 80 -52 144 -90 23 -14 41 -28 41
-33 0 -7 -48 -140 -311 -858 -50 -135 -104 -283 -121 -330 -17 -47 -46 -124
-64 -172 -19 -49 -34 -94 -34 -101 0 -8 -3 -17 -6 -20 -4 -4 -15 -28 -24 -54
-9 -27 -34 -93 -54 -148 -21 -55 -39 -104 -40 -110 -2 -5 -7 -19 -11 -30 -17
-44 -53 -142 -63 -170 -5 -16 -26 -74 -46 -128 l-35 -97 27 15 c26 14 231 146
269 172 26 18 482 312 519 335 18 10 88 56 158 101 69 45 159 103 198 128 40
26 228 147 418 269 190 122 379 244 420 271 41 26 80 52 85 56 6 5 16 12 22
16 12 7 121 -59 410 -248 50 -33 111 -72 135 -87 47 -29 424 -271 448 -288 8
-6 128 -83 265 -171 138 -88 279 -180 315 -203 166 -110 569 -366 574 -366 3
0 2 8 -3 17 -10 19 -52 130 -122 323 -23 63 -54 149 -69 190 -15 41 -88 242
-163 445 -272 745 -399 1092 -427 1165 -16 41 -25 79 -20 83 4 5 114 77 244
160 587 378 822 528 966 622 173 113 497 322 535 345 97 60 365 236 365 240 0
3 -590 5 -1311 5 l-1311 0 -69 185 c-37 102 -68 185 -68 185 0 0 -10 28 -42
115 -17 47 -37 105 -46 130 -8 25 -19 49 -24 55 -5 5 -9 15 -9 22 0 8 -30 94
-66 191 -36 97 -67 182 -69 187 -1 6 -6 21 -12 35 -6 14 -52 140 -103 280 -51
140 -96 264 -100 275 -4 11 -8 23 -9 28 0 4 -8 24 -17 45 -8 20 -27 69 -41
107 -43 121 -136 370 -138 373 -2 2 -5 0 -8 -5z"/>
</g>
</svg>
